/* XPM */
static char * icon_xpm[] = {
"32 32 230 2",
"  	c None",
". 	c #000000",
"+ 	c #010100",
"@ 	c #2C2200",
"# 	c #423400",
"$ 	c #050300",
"% 	c #1B1500",
"& 	c #292000",
"* 	c #020100",
"= 	c #141000",
"- 	c #020200",
"; 	c #312700",
"> 	c #967700",
", 	c #574500",
"' 	c #8B7000",
") 	c #C19C00",
"! 	c #3C2F00",
"~ 	c #060500",
"{ 	c #0F0C00",
"] 	c #231C00",
"^ 	c #9F7F00",
"/ 	c #846A00",
"( 	c #564500",
"_ 	c #3C3000",
": 	c #8F7300",
"< 	c #4E3E00",
"[ 	c #735D00",
"} 	c #816800",
"| 	c #9B7C00",
"1 	c #F4C500",
"2 	c #917400",
"3 	c #534200",
"4 	c #8D7100",
"5 	c #6E5900",
"6 	c #181300",
"7 	c #120E00",
"8 	c #1B1600",
"9 	c #251E00",
"0 	c #987A00",
"a 	c #927400",
"b 	c #6E5800",
"c 	c #493A00",
"d 	c #D7AC00",
"e 	c #786000",
"f 	c #755D00",
"g 	c #937600",
"h 	c #F2C300",
"i 	c #DCB000",
"j 	c #715A00",
"k 	c #524100",
"l 	c #B29000",
"m 	c #9B7E00",
"n 	c #2D2300",
"o 	c #010000",
"p 	c #473800",
"q 	c #A88700",
"r 	c #BD9800",
"s 	c #624E00",
"t 	c #5E4B00",
"u 	c #130E00",
"v 	c #1C1600",
"w 	c #B28F00",
"x 	c #BB9800",
"y 	c #BF9A00",
"z 	c #433500",
"A 	c #725C00",
"B 	c #483A00",
"C 	c #191300",
"D 	c #A68800",
"E 	c #A28300",
"F 	c #2D2400",
"G 	c #261E00",
"H 	c #C19A00",
"I 	c #FECB00",
"J 	c #CBA100",
"K 	c #836A00",
"L 	c #D8AD00",
"M 	c #6B5500",
"N 	c #292100",
"O 	c #866C00",
"P 	c #C39D00",
"Q 	c #271F00",
"R 	c #856A00",
"S 	c #4C3D00",
"T 	c #F5C400",
"U 	c #EDBD00",
"V 	c #745C00",
"W 	c #594700",
"X 	c #775F00",
"Y 	c #483900",
"Z 	c #130F00",
"` 	c #1D1700",
" .	c #080600",
"..	c #191400",
"+.	c #8C7000",
"@.	c #EABB00",
"#.	c #FDCB00",
"$.	c #F4C300",
"%.	c #4E4100",
"&.	c #2C2300",
"*.	c #050400",
"=.	c #151000",
"-.	c #362B00",
";.	c #413400",
">.	c #BE9800",
",.	c #F0C100",
"'.	c #8B6F00",
").	c #B39300",
"!.	c #403200",
"~.	c #957900",
"{.	c #BC9700",
"].	c #BD9900",
"^.	c #826A00",
"/.	c #4B3C00",
"(.	c #A18100",
"_.	c #796100",
":.	c #463800",
"<.	c #0B0900",
"[.	c #060400",
"}.	c #876C00",
"|.	c #BB9700",
"1.	c #4A3B00",
"2.	c #604D00",
"3.	c #D3AA00",
"4.	c #7A6300",
"5.	c #392D00",
"6.	c #030200",
"7.	c #C9A300",
"8.	c #6B5700",
"9.	c #1E1700",
"0.	c #C09900",
"a.	c #CEA600",
"b.	c #322700",
"c.	c #1A1400",
"d.	c #CFAA00",
"e.	c #382E00",
"f.	c #947700",
"g.	c #F9C700",
"h.	c #EFC000",
"i.	c #CEA800",
"j.	c #302600",
"k.	c #564400",
"l.	c #F2C200",
"m.	c #E6B900",
"n.	c #473900",
"o.	c #C8A300",
"p.	c #493B00",
"q.	c #4C3C00",
"r.	c #D6AC00",
"s.	c #E3B700",
"t.	c #937700",
"u.	c #171200",
"v.	c #A78700",
"w.	c #997B00",
"x.	c #3F3200",
"y.	c #675200",
"z.	c #040300",
"A.	c #645000",
"B.	c #CAA300",
"C.	c #B18F00",
"D.	c #957700",
"E.	c #C7A000",
"F.	c #C19B00",
"G.	c #443600",
"H.	c #5C4900",
"I.	c #C09C00",
"J.	c #F6C700",
"K.	c #FECD00",
"L.	c #FDCE00",
"M.	c #876D00",
"N.	c #070500",
"O.	c #0B0800",
"P.	c #3A2E00",
"Q.	c #7C6400",
"R.	c #967B00",
"S.	c #937800",
"T.	c #3D3100",
"U.	c #342900",
"V.	c #584600",
"W.	c #544300",
"X.	c #3D3000",
"Y.	c #1F1800",
"Z.	c #171300",
"`.	c #352A00",
" +	c #685300",
".+	c #392E00",
"++	c #705900",
"@+	c #504000",
"#+	c #0E0B00",
"$+	c #846900",
"%+	c #D5AA00",
"&+	c #AF8B00",
"*+	c #A08000",
"=+	c #9D7E00",
"-+	c #453700",
";+	c #D2A800",
">+	c #7E6600",
",+	c #967900",
"'+	c #CEA500",
")+	c #B99400",
"!+	c #5F4C00",
"~+	c #675100",
"{+	c #AB8A00",
"]+	c #E5B800",
"^+	c #886D00",
"/+	c #E8B900",
"(+	c #A28200",
"_+	c #705A00",
":+	c #7F6600",
"<+	c #110D00",
"[+	c #AB8900",
"}+	c #785F00",
"|+	c #8E7100",
"1+	c #EABC00",
"2+	c #EBBC00",
"3+	c #413500",
"4+	c #625100",
"5+	c #1A1500",
"6+	c #3E3100",
"7+	c #634F00",
"8+	c #9E7F00",
"9+	c #AF8D00",
"0+	c #A48400",
"a+	c #896D00",
"b+	c #AA8A00",
"c+	c #B99800",
"d+	c #221B00",
"e+	c #201900",
"f+	c #2E2400",
"g+	c #100D00",
". . . . . . . . . . . . . . . . . . . . . . . . . . . . . . . . ",
". . . . . . . . . . . . . . . + @ # $ % & * . . . . . . . . . . ",
". . . . . . . . . . . = . . . - ; > , ' ) ! ~ { . . . . . . . . ",
". . . . . . . . . . ] ^ / ( _ : < [ } | 1 2 3 4 5 6 . . . . . . ",
". . . . . . . . 7 8 9 0 a b c d e : f g h i j k l m n . . . . . ",
". . . . . . o p q r s c t u v w x y z ( A B C . _ D E F . . . . ",
". . . . . . G H I I J K L M N O P t + . . . . . . Q K R 7 . . . ",
". . . . . . S T I I U V W X Y Z ` . . . . . . . . .  .# ..o . . ",
". . . . . . 7 +.@.#.$.b %.&.*.. . . . . . . . . . . . . . . . . ",
". . . . . =.-.;.M >.,.'.).!.. . . . . . . . . . . . . . . . . . ",
". . . . Q ~.{.].^./.(._.:.<.. . . . . . . . . . . . . . . . . . ",
". . . [.}.|.1.2.3.4.5.Y 6.. . . . . . . . . . . . . . . . . . . ",
". . . &.7.8.* 9.0.a.b.c.. . . . . . . . . . . . . . . . . . . . ",
". . . /.d.e.Z f.g.h.k 6.. . . . . . . . . . . . . . . . . . . . ",
". . . 3 i.j.k.l.I m.n.. . . . . . . . . . . . . . . . . . . . . ",
". . . 5.o.p.q.r.s.t.u.. . . . . . . . . . . . . . . . . . . . . ",
". . . = v.w.] x.y._ z.. . . . . . . . . . . . . . . . . . . . . ",
". . . u.A.B.C.D.E.F.S . . . . . . . . . . . . . . . . . . . . . ",
". . . G.W H.I.J.K.L.M.N.. . . . . . . . . . . . . . . . . . . . ",
". . . O.1.W P.Q.R.S.T.. . . . . . . . . . . . . . . . . . . . . ",
". . . * U.V.W._.X.Y.T.Z.. . . . . . . . . . . . . . . . . . . . ",
". . . . 6.`. +n..+k.++@+. . . . . . . . . . . . . . . . . . . . ",
". . . . #+$+%+&+*+=+W F . . . . . . . . . . . . . . . . . . . . ",
". . . . . -+;+H >+,+'+)+!+6.. . . . . . . . . . . . . . . . . . ",
". . . . . 6.s ~+j j z {+]+# o . . . . . . . . . . . . . . . . . ",
". . . . . . z.5.;+L G.F ^+j.. . . . . . . . . . . . . . . . . . ",
". . . . . . . z._./+(+` _+:+k.<+. - . . . . . . . . . . . . . . ",
". . . . . . . . N.t [+}+|+1+2+f 3+4+k.b.v =.. . . . . . . . . . ",
". . . . . . . . . . 5+6+c.7+H 8+9+0+a+b+c+2.O.. . . . . . . . . ",
". . . . . . . . . . . . 6.~ d+e+f+N.F j k g+. . . . . . . . . . ",
". . . . . . . . . . . . . . . . . . . [.. . . . . . . . . . . . ",
". . . . . . . . . . . . . . . . . . . . . . . . . . . . . . . . "};
